Results
version=1
nRows=4
nColumns=33
inDegrees=yes
endheader
time	pelvis_tilt	pelvis_tx	pelvis_ty	hip_flexion_r	knee_angle_r	knee_angle_pat_r	ankle_angle_r	pelvis_tilt_u	pelvis_tx_u	pelvis_ty_u	hip_flexion_r_u	knee_angle_r_u	knee_angle_pat_r_u	ankle_angle_r_u	bifemlh_r.activation	bifemlh_r.fiber_length	bifemsh_r.activation	bifemsh_r.fiber_length	glut_max2_r.activation	glut_max2_r.fiber_length	psoas_r.activation	psoas_r.fiber_length	rect_fem_r.activation	rect_fem_r.fiber_length	vas_int_r.activation	vas_int_r.fiber_length	med_gas_r.activation	med_gas_r.fiber_length	soleus_r.activation	soleus_r.fiber_length	tib_ant_r.activation	tib_ant_r.fiber_length
      0.11666666700000000000	      1.28564556708869730000	      0.05530794317774216700	      1.05851703344571680000	    -12.02627247807786600000	    -32.48072709927273400000	    -32.48072709082725900000	      9.08479584204461690000	      0.00000000000000000000	      0.00000000000000000000	      0.00000000000000000000	      0.00000000000000000000	      0.00000000000000000000	      0.00000000000000000000	      0.00000000000000000000	      0.00000000000000000000	      0.07763499368300030800	      0.00000000000000000000	      0.17953693939282311000	      0.00000000000000000000	      0.07849544251074949700	      0.00000000000000000000	      0.11569596046695353000	      0.00000000000000000000	      0.15669025643627973000	      0.00000000000000000000	      0.11104731894711886000	      0.00000000000000000000	      0.09647038999410337300	      0.00000000000000000000	      0.09524887103235467300	      0.00000000000000000000	      0.08667460353155345700
      0.13333333366666666000	      1.14688394023418170000	      0.05768552448569939900	      1.06004650243081060000	    -10.04947804301700600000	    -37.06902103358704900000	    -37.06901985574546600000	      5.57780788616383290000	      0.00000000000000000000	      0.00000000000000000000	      0.00000000000000000000	      0.00000000000000000000	      0.00000000000000000000	      0.00000000000000000000	      0.00000000000000000000	      0.00000000000000000000	      0.07763499368300030800	      0.00000000000000000000	      0.17953693939282311000	      0.00000000000000000000	      0.07849544251074949700	      0.00000000000000000000	      0.11569596046695353000	      0.00000000000000000000	      0.15669025643627973000	      0.00000000000000000000	      0.11104731894711886000	      0.00000000000000000000	      0.09647038999410337300	      0.00000000000000000000	      0.09524887103235467300	      0.00000000000000000000	      0.08667460353155345700
      0.15000000033333333000	      1.03921878023871740000	      0.05928638367450436700	      1.06198390459312410000	     -7.68944786162789300000	    -41.92583713992688400000	    -41.92583554512998500000	      1.87495964044166060000	      0.00000000000000000000	      0.00000000000000000000	      0.00000000000000000000	      0.00000000000000000000	      0.00000000000000000000	      0.00000000000000000000	      0.00000000000000000000	      0.00000000000000000000	      0.07763499368300030800	      0.00000000000000000000	      0.17953693939282311000	      0.00000000000000000000	      0.07849544251074949700	      0.00000000000000000000	      0.11569596046695353000	      0.00000000000000000000	      0.15669025643627973000	      0.00000000000000000000	      0.11104731894711886000	      0.00000000000000000000	      0.09647038999410337300	      0.00000000000000000000	      0.09524887103235467300	      0.00000000000000000000	      0.08667460353155345700
      0.16666666699999999000	      0.98256918948021388000	      0.06074767943151444800	      1.06394020716409710000	     -5.20541929656223080000	    -46.65190746841465600000	    -46.65190586940926900000	     -1.30483716452904890000	      0.00000000000000000000	      0.00000000000000000000	      0.00000000000000000000	      0.00000000000000000000	      0.00000000000000000000	      0.00000000000000000000	      0.00000000000000000000	      0.00000000000000000000	      0.07763499368300030800	      0.00000000000000000000	      0.17953693939282311000	      0.00000000000000000000	      0.07849544251074949700	      0.00000000000000000000	      0.11569596046695353000	      0.00000000000000000000	      0.15669025643627973000	      0.00000000000000000000	      0.11104731894711886000	      0.00000000000000000000	      0.09647038999410337300	      0.00000000000000000000	      0.09524887103235467300	      0.00000000000000000000	      0.08667460353155345700
